<svg width="1200" height="400" viewBox="0 0 1200 400" xmlns="http://www.w3.org/2000/svg">
  <defs>
    <linearGradient id="bg" x1="0%" y1="0%" x2="100%" y2="100%">
      <stop offset="0%" stop-color="#eaf4f3"/>
      <stop offset="100%" stop-color="#f6faf9"/>
    </linearGradient>
    <linearGradient id="beam" x1="0%" y1="0%" x2="100%" y2="100%">
      <stop offset="0%" stop-color="#0e7c86" stop-opacity="0.14"/>
      <stop offset="100%" stop-color="#0e7c86" stop-opacity="0"/>
    </linearGradient>
  </defs>
  <rect width="1200" height="400" fill="url(#bg)"/>
  <polygon points="1200,0 1200,110 780,400 640,400" fill="url(#beam)"/>
  <g stroke="#0e7c86" stroke-opacity="0.10" fill="none" stroke-width="2">
    <circle cx="1160" cy="-30" r="140"/>
    <circle cx="1160" cy="-30" r="240"/>
    <circle cx="1160" cy="-30" r="340"/>
  </g>
  <circle cx="70" cy="60" r="7" fill="#b8862b"/>

  <!-- slot machine cabinet with a padlock and cash, representing a regulatory seizure -->
  <g transform="translate(540,210)">
    <rect x="-75" y="-100" width="150" height="200" rx="14" fill="none" stroke="#16233d" stroke-width="8"/>
    <rect x="-50" y="-75" width="100" height="60" rx="6" fill="none" stroke="#0e7c86" stroke-width="6"/>
    <circle cx="-25" cy="-45" r="10" fill="#0e7c86"/>
    <circle cx="0" cy="-45" r="10" fill="#0e7c86" opacity="0.5"/>
    <circle cx="25" cy="-45" r="10" fill="#0e7c86" opacity="0.5"/>
    <rect x="-30" y="20" width="60" height="26" rx="6" fill="#16233d"/>
  </g>
  <g transform="translate(700,140)">
    <rect x="-30" y="-5" width="60" height="50" rx="8" fill="none" stroke="#b8862b" stroke-width="7"/>
    <path d="M-18 -5 L-18 -25 A18 18 0 0 1 18 -25 L18 -5" fill="none" stroke="#b8862b" stroke-width="7"/>
    <circle cx="0" cy="20" r="7" fill="#b8862b"/>
  </g>
  <g transform="translate(695,295)">
    <ellipse cx="0" cy="0" rx="55" ry="15" fill="none" stroke="#16233d" stroke-width="6"/>
    <ellipse cx="18" cy="-18" rx="55" ry="15" fill="none" stroke="#0e7c86" stroke-width="6"/>
    <text x="18" y="-13" font-family="Arial" font-size="16" fill="#0e7c86" text-anchor="middle">$</text>
  </g>
</svg>
