<svg width="1200" height="400" viewBox="0 0 1200 400" xmlns="http://www.w3.org/2000/svg">
  <defs>
    <linearGradient id="bg" x1="0%" y1="0%" x2="100%" y2="100%">
      <stop offset="0%" stop-color="#eaf4f3"/>
      <stop offset="100%" stop-color="#f6faf9"/>
    </linearGradient>
    <linearGradient id="beam" x1="0%" y1="0%" x2="100%" y2="100%">
      <stop offset="0%" stop-color="#0e7c86" stop-opacity="0.14"/>
      <stop offset="100%" stop-color="#0e7c86" stop-opacity="0"/>
    </linearGradient>
  </defs>
  <rect width="1200" height="400" fill="url(#bg)"/>
  <polygon points="1200,0 1200,110 780,400 640,400" fill="url(#beam)"/>
  <g stroke="#0e7c86" stroke-opacity="0.10" fill="none" stroke-width="2">
    <circle cx="1160" cy="-30" r="140"/>
    <circle cx="1160" cy="-30" r="240"/>
    <circle cx="1160" cy="-30" r="340"/>
  </g>
  <circle cx="70" cy="60" r="7" fill="#b8862b"/>

  <!-- conference podium microphone with sound waves, beside a crossed-out contract ticket -->
  <g transform="translate(480,230)">
    <rect x="-60" y="40" width="120" height="70" rx="8" fill="none" stroke="#16233d" stroke-width="8"/>
    <line x1="0" y1="40" x2="0" y2="-20" stroke="#16233d" stroke-width="8"/>
    <rect x="-26" y="-85" width="52" height="75" rx="22" fill="none" stroke="#0e7c86" stroke-width="8"/>
    <path d="M-45 -45 A45 45 0 0 0 45 -45" fill="none" stroke="#0e7c86" stroke-width="6"/>
  </g>
  <g transform="translate(590,140)" stroke="#b8862b" stroke-width="5" fill="none" stroke-linecap="round">
    <path d="M0 0 Q 20 -15 0 -30"/>
    <path d="M14 10 Q 42 -15 14 -40"/>
  </g>
  <g transform="translate(740,220)">
    <rect x="-70" y="-80" width="140" height="160" rx="14" fill="none" stroke="#16233d" stroke-width="7"/>
    <line x1="-45" y1="-40" x2="45" y2="-40" stroke="#16233d" stroke-width="5" opacity="0.5"/>
    <line x1="-45" y1="-10" x2="45" y2="-10" stroke="#16233d" stroke-width="5" opacity="0.5"/>
    <line x1="-45" y1="20" x2="20" y2="20" stroke="#16233d" stroke-width="5" opacity="0.5"/>
    <line x1="-95" y1="-95" x2="95" y2="95" stroke="#b8862b" stroke-width="10" stroke-linecap="round"/>
  </g>
</svg>
