<svg width="1200" height="400" viewBox="0 0 1200 400" xmlns="http://www.w3.org/2000/svg">
  <defs>
    <linearGradient id="bg" x1="0%" y1="0%" x2="100%" y2="100%">
      <stop offset="0%" stop-color="#eaf4f3"/>
      <stop offset="100%" stop-color="#f6faf9"/>
    </linearGradient>
    <linearGradient id="beam" x1="0%" y1="0%" x2="100%" y2="100%">
      <stop offset="0%" stop-color="#0e7c86" stop-opacity="0.14"/>
      <stop offset="100%" stop-color="#0e7c86" stop-opacity="0"/>
    </linearGradient>
  </defs>
  <rect width="1200" height="400" fill="url(#bg)"/>
  <polygon points="1200,0 1200,110 780,400 640,400" fill="url(#beam)"/>
  <g stroke="#0e7c86" stroke-opacity="0.10" fill="none" stroke-width="2">
    <circle cx="1160" cy="-30" r="140"/>
    <circle cx="1160" cy="-30" r="240"/>
    <circle cx="1160" cy="-30" r="340"/>
  </g>
  <circle cx="70" cy="60" r="7" fill="#b8862b"/>

  <!-- courthouse columns beneath a gavel, representing a federal court ruling -->
  <g transform="translate(600,255)">
    <rect x="-150" y="30" width="300" height="18" rx="4" fill="#16233d"/>
    <rect x="-130" y="-55" width="20" height="85" fill="none" stroke="#0e7c86" stroke-width="6"/>
    <rect x="-70" y="-55" width="20" height="85" fill="none" stroke="#0e7c86" stroke-width="6"/>
    <rect x="-10" y="-55" width="20" height="85" fill="none" stroke="#0e7c86" stroke-width="6"/>
    <rect x="50" y="-55" width="20" height="85" fill="none" stroke="#0e7c86" stroke-width="6"/>
    <rect x="110" y="-55" width="20" height="85" fill="none" stroke="#0e7c86" stroke-width="6"/>
    <path d="M-150 -55 L0 -100 L150 -55 Z" fill="none" stroke="#16233d" stroke-width="8" stroke-linejoin="round"/>
  </g>
  <g transform="translate(695,115) rotate(-35)">
    <rect x="-55" y="-14" width="55" height="28" rx="6" fill="none" stroke="#b8862b" stroke-width="7"/>
    <rect x="-10" y="-20" width="18" height="40" rx="4" fill="none" stroke="#b8862b" stroke-width="7"/>
  </g>
</svg>
