<svg width="1200" height="400" viewBox="0 0 1200 400" xmlns="http://www.w3.org/2000/svg">
  <defs>
    <linearGradient id="bg" x1="0%" y1="0%" x2="100%" y2="100%">
      <stop offset="0%" stop-color="#eaf4f3"/>
      <stop offset="100%" stop-color="#f6faf9"/>
    </linearGradient>
    <linearGradient id="beam" x1="0%" y1="0%" x2="100%" y2="100%">
      <stop offset="0%" stop-color="#0e7c86" stop-opacity="0.14"/>
      <stop offset="100%" stop-color="#0e7c86" stop-opacity="0"/>
    </linearGradient>
  </defs>
  <rect width="1200" height="400" fill="url(#bg)"/>
  <polygon points="1200,0 1200,110 780,400 640,400" fill="url(#beam)"/>
  <g stroke="#0e7c86" stroke-opacity="0.10" fill="none" stroke-width="2">
    <circle cx="1160" cy="-30" r="140"/>
    <circle cx="1160" cy="-30" r="240"/>
    <circle cx="1160" cy="-30" r="340"/>
  </g>
  <circle cx="70" cy="60" r="7" fill="#b8862b"/>

  <g transform="translate(600,140)">
    <line x1="0" y1="-20" x2="0" y2="70" stroke="#16233d" stroke-width="10"/>
    <line x1="-115" y1="-20" x2="115" y2="-20" stroke="#16233d" stroke-width="7"/>
    <circle cx="0" cy="-20" r="9" fill="#16233d"/>
    <path d="M-115 -20 L-150 35 A42 28 0 0 0 -80 35 Z" fill="none" stroke="#0e7c86" stroke-width="6" stroke-linejoin="round"/>
    <path d="M115 -20 L80 35 A42 28 0 0 0 150 35 Z" fill="none" stroke="#b8862b" stroke-width="6" stroke-linejoin="round"/>
  </g>
  <g transform="translate(485,315)">
    <rect x="-55" y="-32" width="110" height="64" rx="8" fill="none" stroke="#16233d" stroke-width="7"/>
    <path d="M-25 -8 L-8 10 L28 -20" fill="none" stroke="#16233d" stroke-width="6" stroke-linecap="round" stroke-linejoin="round"/>
  </g>
  <g transform="translate(715,315)">
    <rect x="-55" y="-32" width="110" height="64" rx="8" fill="none" stroke="#0e7c86" stroke-width="7"/>
    <path d="M-25 -8 L-8 10 L28 -20" fill="none" stroke="#0e7c86" stroke-width="6" stroke-linecap="round" stroke-linejoin="round"/>
  </g>
</svg>
