<svg width="1200" height="400" viewBox="0 0 1200 400" xmlns="http://www.w3.org/2000/svg">
  <defs>
    <linearGradient id="bg" x1="0%" y1="0%" x2="100%" y2="100%">
      <stop offset="0%" stop-color="#eaf4f3"/>
      <stop offset="100%" stop-color="#f6faf9"/>
    </linearGradient>
    <linearGradient id="beam" x1="0%" y1="0%" x2="100%" y2="100%">
      <stop offset="0%" stop-color="#0e7c86" stop-opacity="0.14"/>
      <stop offset="100%" stop-color="#0e7c86" stop-opacity="0"/>
    </linearGradient>
  </defs>
  <rect width="1200" height="400" fill="url(#bg)"/>
  <polygon points="1200,0 1200,110 780,400 640,400" fill="url(#beam)"/>
  <g stroke="#0e7c86" stroke-opacity="0.10" fill="none" stroke-width="2">
    <circle cx="1160" cy="-30" r="140"/>
    <circle cx="1160" cy="-30" r="240"/>
    <circle cx="1160" cy="-30" r="340"/>
  </g>
  <circle cx="70" cy="60" r="7" fill="#b8862b"/>

  <!-- trophy with a rising odds line beside it -->
  <g transform="translate(500,205)">
    <path d="M-60 -80 L60 -80 L52 -18 A52 52 0 0 1 -52 -18 Z" fill="none" stroke="#16233d" stroke-width="9" stroke-linejoin="round"/>
    <path d="M-60 -74 C-102 -74 -102 -22 -58 -16" fill="none" stroke="#0e7c86" stroke-width="7"/>
    <path d="M60 -74 C102 -74 102 -22 58 -16" fill="none" stroke="#0e7c86" stroke-width="7"/>
    <line x1="0" y1="0" x2="0" y2="38" stroke="#16233d" stroke-width="9"/>
    <path d="M-42 58 L42 58 L30 38 L-30 38 Z" fill="#16233d"/>
  </g>
  <g transform="translate(660,230)" fill="none" stroke="#b8862b" stroke-width="8" stroke-linecap="round" stroke-linejoin="round">
    <polyline points="0,70 55,25 110,42 175,-45"/>
    <path d="M148,-45 L175,-45 L175,-16"/>
  </g>
</svg>
