<svg width="1200" height="400" viewBox="0 0 1200 400" xmlns="http://www.w3.org/2000/svg">
  <defs>
    <linearGradient id="bg" x1="0%" y1="0%" x2="100%" y2="100%">
      <stop offset="0%" stop-color="#eaf4f3"/>
      <stop offset="100%" stop-color="#f6faf9"/>
    </linearGradient>
    <linearGradient id="beam" x1="0%" y1="0%" x2="100%" y2="100%">
      <stop offset="0%" stop-color="#0e7c86" stop-opacity="0.14"/>
      <stop offset="100%" stop-color="#0e7c86" stop-opacity="0"/>
    </linearGradient>
  </defs>
  <rect width="1200" height="400" fill="url(#bg)"/>
  <polygon points="1200,0 1200,110 780,400 640,400" fill="url(#beam)"/>
  <g stroke="#0e7c86" stroke-opacity="0.10" fill="none" stroke-width="2">
    <circle cx="1160" cy="-30" r="140"/>
    <circle cx="1160" cy="-30" r="240"/>
    <circle cx="1160" cy="-30" r="340"/>
  </g>
  <circle cx="70" cy="60" r="7" fill="#b8862b"/>

  <!-- stadium roof half-open with a snowflake / wind lines -->
  <g transform="translate(600,210)">
    <path d="M-160 40 A160 120 0 0 1 0 -80" fill="none" stroke="#16233d" stroke-width="9" stroke-linecap="round"/>
    <path d="M0 -80 A160 120 0 0 1 160 40" fill="none" stroke="#0e7c86" stroke-width="9" stroke-linecap="round" stroke-dasharray="4 14"/>
    <line x1="-160" y1="40" x2="160" y2="40" stroke="#16233d" stroke-width="9" stroke-linecap="round"/>
    <g transform="translate(80,-10)" stroke="#0e7c86" stroke-width="6" stroke-linecap="round">
      <line x1="0" y1="-26" x2="0" y2="26"/>
      <line x1="-22" y1="-13" x2="22" y2="13"/>
      <line x1="-22" y1="13" x2="22" y2="-13"/>
    </g>
    <path d="M-110 -20 q10 -16 20 0 t20 0" fill="none" stroke="#16233d" stroke-width="6" opacity="0.55" stroke-linecap="round"/>
    <path d="M-115 5 q10 -16 20 0 t20 0" fill="none" stroke="#16233d" stroke-width="6" opacity="0.4" stroke-linecap="round"/>
  </g>
</svg>
