<svg width="1200" height="400" viewBox="0 0 1200 400" xmlns="http://www.w3.org/2000/svg">
  <defs>
    <linearGradient id="bg" x1="0%" y1="0%" x2="100%" y2="100%">
      <stop offset="0%" stop-color="#eaf4f3"/>
      <stop offset="100%" stop-color="#f6faf9"/>
    </linearGradient>
    <linearGradient id="beam" x1="0%" y1="0%" x2="100%" y2="100%">
      <stop offset="0%" stop-color="#0e7c86" stop-opacity="0.14"/>
      <stop offset="100%" stop-color="#0e7c86" stop-opacity="0"/>
    </linearGradient>
  </defs>
  <rect width="1200" height="400" fill="url(#bg)"/>
  <polygon points="1200,0 1200,110 780,400 640,400" fill="url(#beam)"/>
  <g stroke="#0e7c86" stroke-opacity="0.10" fill="none" stroke-width="2">
    <circle cx="1160" cy="-30" r="140"/>
    <circle cx="1160" cy="-30" r="240"/>
    <circle cx="1160" cy="-30" r="340"/>
  </g>
  <circle cx="70" cy="60" r="7" fill="#b8862b"/>

  <g transform="translate(600,210)">
    <path d="M0 -170 L-90 -20 L90 -20 Z" fill="#0e7c86" opacity="0.18"/>
    <line x1="0" y1="-170" x2="0" y2="-195" stroke="#16233d" stroke-width="8" stroke-linecap="round"/>
    <g transform="translate(-40,45) rotate(-20)">
      <line x1="0" y1="-70" x2="0" y2="70" stroke="#16233d" stroke-width="8" stroke-linecap="round"/>
      <path d="M0 -60 L90 -30 L0 0 Z" fill="#16233d"/>
    </g>
    <g transform="translate(40,45) rotate(20)">
      <line x1="0" y1="-70" x2="0" y2="70" stroke="#0e7c86" stroke-width="8" stroke-linecap="round"/>
      <path d="M0 -60 L-90 -30 L0 0 Z" fill="#0e7c86"/>
    </g>
  </g>
</svg>
