<svg width="1200" height="400" viewBox="0 0 1200 400" xmlns="http://www.w3.org/2000/svg">
  <defs>
    <linearGradient id="bg" x1="0%" y1="0%" x2="100%" y2="100%">
      <stop offset="0%" stop-color="#eaf4f3"/>
      <stop offset="100%" stop-color="#f6faf9"/>
    </linearGradient>
    <linearGradient id="beam" x1="0%" y1="0%" x2="100%" y2="100%">
      <stop offset="0%" stop-color="#0e7c86" stop-opacity="0.14"/>
      <stop offset="100%" stop-color="#0e7c86" stop-opacity="0"/>
    </linearGradient>
  </defs>
  <rect width="1200" height="400" fill="url(#bg)"/>
  <polygon points="1200,0 1200,110 780,400 640,400" fill="url(#beam)"/>
  <g stroke="#0e7c86" stroke-opacity="0.10" fill="none" stroke-width="2">
    <circle cx="1160" cy="-30" r="140"/>
    <circle cx="1160" cy="-30" r="240"/>
    <circle cx="1160" cy="-30" r="340"/>
  </g>
  <circle cx="70" cy="60" r="7" fill="#b8862b"/>

  <!-- coin mid-flip above a football field with two possession arrows -->
  <g transform="translate(600,270)">
    <rect x="-170" y="-20" width="340" height="60" rx="8" fill="none" stroke="#16233d" stroke-width="8"/>
    <line x1="0" y1="-20" x2="0" y2="40" stroke="#16233d" stroke-width="5" opacity="0.5"/>
  </g>
  <g transform="translate(510,220)" stroke="#0e7c86" stroke-width="7" fill="none" stroke-linecap="round" stroke-linejoin="round">
    <line x1="0" y1="0" x2="-55" y2="0"/>
    <path d="M-35 -18 L-55 0 L-35 18"/>
  </g>
  <g transform="translate(690,220)" stroke="#b8862b" stroke-width="7" fill="none" stroke-linecap="round" stroke-linejoin="round">
    <line x1="0" y1="0" x2="55" y2="0"/>
    <path d="M35 -18 L55 0 L35 18"/>
  </g>
  <g transform="translate(600,100)">
    <ellipse cx="0" cy="0" rx="46" ry="60" fill="none" stroke="#16233d" stroke-width="8"/>
    <ellipse cx="0" cy="0" rx="18" ry="60" fill="none" stroke="#0e7c86" stroke-width="4" opacity="0.6"/>
  </g>
</svg>
