<svg width="1200" height="400" viewBox="0 0 1200 400" xmlns="http://www.w3.org/2000/svg">
  <defs>
    <linearGradient id="bg" x1="0%" y1="0%" x2="100%" y2="100%">
      <stop offset="0%" stop-color="#eaf4f3"/>
      <stop offset="100%" stop-color="#f6faf9"/>
    </linearGradient>
    <linearGradient id="beam" x1="0%" y1="0%" x2="100%" y2="100%">
      <stop offset="0%" stop-color="#0e7c86" stop-opacity="0.14"/>
      <stop offset="100%" stop-color="#0e7c86" stop-opacity="0"/>
    </linearGradient>
  </defs>
  <rect width="1200" height="400" fill="url(#bg)"/>
  <polygon points="1200,0 1200,110 780,400 640,400" fill="url(#beam)"/>
  <g stroke="#0e7c86" stroke-opacity="0.10" fill="none" stroke-width="2">
    <circle cx="1160" cy="-30" r="140"/>
    <circle cx="1160" cy="-30" r="240"/>
    <circle cx="1160" cy="-30" r="340"/>
  </g>
  <circle cx="70" cy="60" r="7" fill="#b8862b"/>

  <!-- football above a globe with a flight-path arc -->
  <g transform="translate(600,240)">
    <circle cx="0" cy="0" r="95" fill="none" stroke="#16233d" stroke-width="8"/>
    <ellipse cx="0" cy="0" rx="95" ry="38" fill="none" stroke="#0e7c86" stroke-width="4" opacity="0.55"/>
    <line x1="-95" y1="0" x2="95" y2="0" stroke="#0e7c86" stroke-width="4" opacity="0.55"/>
    <path d="M-70 -55 A95 95 0 0 1 70 -55" fill="none" stroke="#0e7c86" stroke-width="4" opacity="0.4"/>
  </g>
  <g transform="translate(615,120) rotate(-18)">
    <ellipse cx="0" cy="0" rx="72" ry="38" fill="none" stroke="#16233d" stroke-width="9"/>
    <line x1="-26" y1="0" x2="26" y2="0" stroke="#16233d" stroke-width="5"/>
  </g>
  <path d="M430 250 Q 560 90 640 140" fill="none" stroke="#b8862b" stroke-width="5" stroke-dasharray="3 10" stroke-linecap="round"/>
</svg>
