<svg width="1200" height="400" viewBox="0 0 1200 400" xmlns="http://www.w3.org/2000/svg">
  <defs>
    <linearGradient id="bg" x1="0%" y1="0%" x2="100%" y2="100%">
      <stop offset="0%" stop-color="#eaf4f3"/>
      <stop offset="100%" stop-color="#f6faf9"/>
    </linearGradient>
    <linearGradient id="beam" x1="0%" y1="0%" x2="100%" y2="100%">
      <stop offset="0%" stop-color="#0e7c86" stop-opacity="0.14"/>
      <stop offset="100%" stop-color="#0e7c86" stop-opacity="0"/>
    </linearGradient>
  </defs>
  <rect width="1200" height="400" fill="url(#bg)"/>
  <polygon points="1200,0 1200,110 780,400 640,400" fill="url(#beam)"/>
  <g stroke="#0e7c86" stroke-opacity="0.10" fill="none" stroke-width="2">
    <circle cx="1160" cy="-30" r="140"/>
    <circle cx="1160" cy="-30" r="240"/>
    <circle cx="1160" cy="-30" r="340"/>
  </g>
  <circle cx="70" cy="60" r="7" fill="#b8862b"/>

  <!-- debit card with warning triangle, overseen by a magnifying glass -->
  <g transform="translate(470,220)">
    <rect x="-95" y="-65" width="190" height="130" rx="16" fill="#fff" stroke="#16233d" stroke-width="7"/>
    <rect x="-95" y="-35" width="190" height="26" fill="#16233d"/>
    <rect x="-70" y="18" width="70" height="14" rx="4" fill="#16233d" opacity="0.35"/>
    <rect x="20" y="18" width="45" height="14" rx="4" fill="#16233d" opacity="0.35"/>
  </g>
  <g transform="translate(680,180)">
    <path d="M0 -55 L50 40 L-50 40 Z" fill="none" stroke="#b8862b" stroke-width="8" stroke-linejoin="round"/>
    <line x1="0" y1="-25" x2="0" y2="10" stroke="#b8862b" stroke-width="8" stroke-linecap="round"/>
    <circle cx="0" cy="26" r="5" fill="#b8862b"/>
  </g>
  <g transform="translate(785,305)">
    <circle cx="0" cy="0" r="34" fill="none" stroke="#0e7c86" stroke-width="8"/>
    <line x1="24" y1="24" x2="55" y2="55" stroke="#0e7c86" stroke-width="10" stroke-linecap="round"/>
  </g>
</svg>
