<svg width="1200" height="400" viewBox="0 0 1200 400" xmlns="http://www.w3.org/2000/svg">
  <defs>
    <linearGradient id="bg" x1="0%" y1="0%" x2="100%" y2="100%">
      <stop offset="0%" stop-color="#eaf4f3"/>
      <stop offset="100%" stop-color="#f6faf9"/>
    </linearGradient>
    <linearGradient id="beam" x1="0%" y1="0%" x2="100%" y2="100%">
      <stop offset="0%" stop-color="#0e7c86" stop-opacity="0.14"/>
      <stop offset="100%" stop-color="#0e7c86" stop-opacity="0"/>
    </linearGradient>
  </defs>
  <rect width="1200" height="400" fill="url(#bg)"/>
  <polygon points="1200,0 1200,110 780,400 640,400" fill="url(#beam)"/>
  <g stroke="#0e7c86" stroke-opacity="0.10" fill="none" stroke-width="2">
    <circle cx="1160" cy="-30" r="140"/>
    <circle cx="1160" cy="-30" r="240"/>
    <circle cx="1160" cy="-30" r="340"/>
  </g>
  <circle cx="70" cy="60" r="7" fill="#b8862b"/>

  <!-- shield with check -->
  <g transform="translate(600,225)">
    <path d="M0 -110 L95 -75 L95 5 C95 65 55 105 0 125 C-55 105 -95 65 -95 5 L-95 -75 Z"
          fill="none" stroke="#16233d" stroke-width="10" stroke-linejoin="round"/>
    <path d="M-45 -5 L-10 30 L55 -50" fill="none" stroke="#0e7c86" stroke-width="12" stroke-linecap="round" stroke-linejoin="round"/>
  </g>
</svg>
