<svg width="1200" height="400" viewBox="0 0 1200 400" xmlns="http://www.w3.org/2000/svg">
  <defs>
    <linearGradient id="bg" x1="0%" y1="0%" x2="100%" y2="100%">
      <stop offset="0%" stop-color="#eaf4f3"/>
      <stop offset="100%" stop-color="#f6faf9"/>
    </linearGradient>
    <linearGradient id="beam" x1="0%" y1="0%" x2="100%" y2="100%">
      <stop offset="0%" stop-color="#0e7c86" stop-opacity="0.14"/>
      <stop offset="100%" stop-color="#0e7c86" stop-opacity="0"/>
    </linearGradient>
  </defs>
  <rect width="1200" height="400" fill="url(#bg)"/>
  <polygon points="1200,0 1200,110 780,400 640,400" fill="url(#beam)"/>
  <g stroke="#0e7c86" stroke-opacity="0.10" fill="none" stroke-width="2">
    <circle cx="1160" cy="-30" r="140"/>
    <circle cx="1160" cy="-30" r="240"/>
    <circle cx="1160" cy="-30" r="340"/>
  </g>
  <circle cx="70" cy="60" r="7" fill="#b8862b"/>

  <g transform="translate(570,220)">
    <path d="M-115 90 L-115 -20 L0 -95 L115 -20 L115 90 Z" fill="none" stroke="#16233d" stroke-width="8" stroke-linejoin="round"/>
    <line x1="-115" y1="90" x2="115" y2="90" stroke="#16233d" stroke-width="8"/>
    <rect x="-75" y="10" width="55" height="80" fill="none" stroke="#0e7c86" stroke-width="6"/>
    <rect x="20" y="10" width="55" height="80" fill="none" stroke="#0e7c86" stroke-width="6"/>
    <line x1="-75" y1="50" x2="-20" y2="50" stroke="#0e7c86" stroke-width="4" opacity="0.5"/>
    <line x1="20" y1="50" x2="75" y2="50" stroke="#0e7c86" stroke-width="4" opacity="0.5"/>
  </g>
  <g transform="translate(735,145) rotate(-16)">
    <rect x="-48" y="-20" width="96" height="40" rx="7" fill="#b8862b"/>
    <circle cx="-48" cy="0" r="6" fill="#16233d"/>
    <text x="0" y="8" font-family="Arial" font-size="22" fill="#16233d" text-anchor="middle" font-weight="bold">$</text>
  </g>
  <g transform="translate(730,265)" stroke="#16233d" stroke-width="6" fill="none" stroke-linecap="round">
    <line x1="0" y1="-28" x2="0" y2="28"/>
    <path d="M-12 12 L0 28 L12 12"/>
  </g>

</svg>
