<svg width="1200" height="400" viewBox="0 0 1200 400" xmlns="http://www.w3.org/2000/svg">
  <defs>
    <linearGradient id="bg" x1="0%" y1="0%" x2="100%" y2="100%">
      <stop offset="0%" stop-color="#eaf4f3"/>
      <stop offset="100%" stop-color="#f6faf9"/>
    </linearGradient>
    <linearGradient id="beam" x1="0%" y1="0%" x2="100%" y2="100%">
      <stop offset="0%" stop-color="#0e7c86" stop-opacity="0.14"/>
      <stop offset="100%" stop-color="#0e7c86" stop-opacity="0"/>
    </linearGradient>
  </defs>
  <rect width="1200" height="400" fill="url(#bg)"/>
  <polygon points="1200,0 1200,110 780,400 640,400" fill="url(#beam)"/>
  <g stroke="#0e7c86" stroke-opacity="0.10" fill="none" stroke-width="2">
    <circle cx="1160" cy="-30" r="140"/>
    <circle cx="1160" cy="-30" r="240"/>
    <circle cx="1160" cy="-30" r="340"/>
  </g>
  <circle cx="70" cy="60" r="7" fill="#b8862b"/>

  <!-- fanned playing cards with a 21 badge, representing Spanish 21's stripped-deck variant -->
  <g transform="translate(560,225)">
    <g transform="rotate(-16)">
      <rect x="-58" y="-92" width="116" height="164" rx="12" fill="#fff" stroke="#16233d" stroke-width="6"/>
      <text x="-36" y="-52" font-family="Georgia, serif" font-size="30" fill="#16233d">7</text>
    </g>
    <g transform="rotate(-2)">
      <rect x="-58" y="-92" width="116" height="164" rx="12" fill="#fff" stroke="#0e7c86" stroke-width="6"/>
      <text x="-34" y="-52" font-family="Georgia, serif" font-size="30" fill="#0e7c86">A</text>
    </g>
    <g transform="rotate(13)">
      <rect x="-58" y="-92" width="116" height="164" rx="12" fill="#fff" stroke="#16233d" stroke-width="6"/>
      <text x="-30" y="-52" font-family="Georgia, serif" font-size="26" fill="#16233d">K</text>
    </g>
  </g>
  <g transform="translate(795,110)">
    <circle cx="0" cy="0" r="46" fill="none" stroke="#b8862b" stroke-width="6"/>
    <text x="0" y="9" font-family="Arial" font-size="30" fill="#b8862b" text-anchor="middle">21</text>
  </g>
</svg>
